PathFileType	4	(X/Y/Z)	/Users/itak/Documents/Research/Walk-IL/dataset/trc/00271_00010.trc
DataRate	CameraRate	NumFrames	NumMarkers	Units	OrigDataRate	OrigDataStartFrame	OrigNumFrames
100.000000	100.000000	4	54	mm	100.000000	0	565
Frame#	Time	LPSI			L3			STRN			T10			C7			CLAV			RBAK			LBAK			LSHO			LUPA			LAEL			LAOL			LWTS			LWPS			LFRA			LHPS			LHTS			RSHO			RUPA			RAEL			RAOL			RWTS			RWPS			RFRA			RIFD			RHTS			RHPS			RBHD			LFHD			RFHD			LBHD			LHIP			RHIP			RASI			LKNE			LANK			LTIP			LTOE			LMT1			LMT5			LHEE			RKNE			RTHI			RANK			RTIP			RTOE			RMT1			RMT5			RHEE			LIFD			RPSI			LTHI			LASI			*53			
		X1	Y1	Z1	X2	Y2	Z2	X3	Y3	Z3	X4	Y4	Z4	X5	Y5	Z5	X6	Y6	Z6	X7	Y7	Z7	X8	Y8	Z8	X9	Y9	Z9	X10	Y10	Z10	X11	Y11	Z11	X12	Y12	Z12	X13	Y13	Z13	X14	Y14	Z14	X15	Y15	Z15	X16	Y16	Z16	X17	Y17	Z17	X18	Y18	Z18	X19	Y19	Z19	X20	Y20	Z20	X21	Y21	Z21	X22	Y22	Z22	X23	Y23	Z23	X24	Y24	Z24	X25	Y25	Z25	X26	Y26	Z26	X27	Y27	Z27	X28	Y28	Z28	X29	Y29	Z29	X30	Y30	Z30	X31	Y31	Z31	X32	Y32	Z32	X33	Y33	Z33	X34	Y34	Z34	X35	Y35	Z35	X36	Y36	Z36	X37	Y37	Z37	X38	Y38	Z38	X39	Y39	Z39	X40	Y40	Z40	X41	Y41	Z41	X42	Y42	Z42	X43	Y43	Z43	X44	Y44	Z44	X45	Y45	Z45	X46	Y46	Z46	X47	Y47	Z47	X48	Y48	Z48	X49	Y49	Z49	X50	Y50	Z50	X51	Y51	Z51	X52	Y52	Z52	X53	Y53	Z53	X54	Y54	Z54	

1	0	846.3438720703125	990.9310302734375	-112.8187408447266	860.7354736328125	1065.016967773438	-27.5755786895752	1105.981567382812	1251.630737304688	-26.55936241149902	844.3164672851562	1179.190551757812	-28.93894195556641	876.0831298828125	1423.635620117188	-44.83332824707031	1040.909912109375	1352.092529296875	-31.35108375549316	828.672119140625	1285.714233398438	33.86572647094727	864.4616088867188	1386.8515625	-146.7516326904297	960.1925659179688	1400.551635742188	-196.2997894287109	943.5857543945312	1283.096557617188	-275.4610290527344	960.4191284179688	1079.963500976562	-292.8075866699219	891.0431518554688	1064.3642578125	-242.0964508056641	1041.0078125	860.2901000976562	-236.5149993896484	1015.233581542969	848.803466796875	-302.8973388671875	979.1671752929688	976.289794921875	-300.1010437011719	1021.498046875	760.838623046875	-300.8790283203125	1069.325561523438	762.3860473632812	-255.5727844238281	942.4248657226562	1406.873413085938	117.6159973144531	936.0377197265625	1350.318725585938	185.4026184082031	934.3927001953125	1087.015502929688	243.7288055419922	898.938720703125	1075.15673828125	154.5238494873047	1044.28271484375	867.3783569335938	195.9566497802734	1002.68310546875	862.2036743164062	269.6611022949219	961.6676635742188	1020.582580566406	257.6379699707031	1061.269287109375	681.9144897460938	200.8222198486328	1079.524047851562	753.5657348632812	214.2094879150391	1032.562622070312	751.309814453125	266.0744934082031	900.9492797851562	1586.8544921875	34.41870498657227	1078.906494140625	1623.982421875	-75.21798706054688	1074.487060546875	1617.088256835938	17.56941413879395	909.7548217773438	1587.60693359375	-111.3561325073242	924.0310668945312	944.757568359375	-205.874755859375	943.5928344726562	948.1690673828125	165.5706024169922	1063.287719726562	955.3163452148438	96.08425903320312	983.6885375976562	478.8899536132812	-183.5002899169922	871.0719604492188	39.86322402954102	-167.5814056396484	920.1608276367188	255.9149780273438	-185.5401306152344	1076.800659179688	28.84258079528809	-99.66558074951172	1004.1357421875	22.60603523254395	-63.87845230102539	995.7146606445312	33.29399108886719	-175.5396728515625	824.9742431640625	34.85051727294922	-109.3242721557617	974.60009765625	474.0534973144531	122.1047515869141	1006.824279785156	735.5665283203125	159.659912109375	882.5161743164062	34.47741317749023	83.17624664306641	974.1632080078125	349.5583801269531	105.1516723632812	1079.508178710938	35.0005989074707	32.01792526245117	1022.722290039062	33.92253112792969	-7.218150615692139	986.2549438476562	24.42294502258301	105.1377258300781	830.1484985351562	35.48382186889648	31.36748504638672	1048.9658203125	672.8402099609375	-236.4989624023438	843.7006225585938	996.6658935546875	61.39763641357422	976.412841796875	620.2905883789062	-203.3333129882812	1053.311889648438	956.6796875	-155.0156402587891	nan	nan	nan	
2	0.01	846.3492431640625	990.9022216796875	-112.5680236816406	860.73046875	1065.030639648438	-27.45071029663086	1106.022216796875	1251.606567382812	-26.47414398193359	844.288330078125	1179.158813476562	-28.78763961791992	876.0897216796875	1423.603149414062	-44.70466995239258	1040.942749023438	1352.080444335938	-31.26309776306152	828.7157592773438	1285.699829101562	33.98224258422852	864.4644775390625	1386.841552734375	-146.6711883544922	960.1571655273438	1400.48486328125	-196.1936340332031	943.5455932617188	1283.000610351562	-275.314697265625	960.4140625	1079.865844726562	-292.5707092285156	891.0452880859375	1064.313232421875	-241.8722381591797	1040.959228515625	860.2357177734375	-236.1789093017578	1015.275207519531	848.68994140625	-302.5191345214844	979.168212890625	976.2177124023438	-299.802490234375	1021.469848632812	760.7269897460938	-300.4617614746094	1069.276245117188	762.3048706054688	-255.0673828125	942.4534301757812	1406.835083007812	117.7292022705078	936.0814819335938	1350.253540039062	185.4971313476562	934.5074462890625	1086.897827148438	243.6690216064453	899.006103515625	1075.093505859375	154.4412231445312	1044.304443359375	867.2315673828125	195.7671508789062	1002.906982421875	862.094970703125	269.5729064941406	961.8093872070312	1020.469299316406	257.539794921875	1061.181518554688	681.76708984375	200.5573425292969	1079.412841796875	753.3834838867188	213.9391326904297	1032.57177734375	751.1624755859375	265.8653259277344	900.9391479492188	1586.85693359375	34.54237747192383	1078.879028320312	1624.022338867188	-75.08256530761719	1074.461059570312	1617.121337890625	17.72379302978516	909.6900634765625	1587.609130859375	-111.2191772460938	922.27392578125	944.8551635742188	-206.1538238525391	943.6167602539062	948.1554565429688	165.7505340576172	1063.24462890625	955.2963256835938	96.15642547607422	983.6512451171875	478.8877258300781	-183.4501342773438	871.0745849609375	39.87364196777344	-167.5772247314453	920.1510009765625	255.9237060546875	-185.5089721679688	1076.80908203125	28.8555850982666	-99.67878723144531	1004.136962890625	22.60541343688965	-63.8806037902832	995.7201538085938	33.29581069946289	-175.5438995361328	824.977294921875	34.85921859741211	-109.3217163085938	974.5447998046875	474.0424194335938	122.1655731201172	1006.864562988281	735.4548950195312	159.6700134277344	882.5183715820312	34.49994277954102	83.28317260742188	974.116455078125	349.5719909667969	105.2248382568359	1079.505126953125	35.00996017456055	32.02085494995117	1022.713317871094	33.92464828491211	-7.204983711242676	986.251953125	24.41472053527832	105.142204284668	830.1755981445312	35.47704315185547	31.390380859375	1049.00341796875	672.8639526367188	-236.1132507324219	843.6641235351562	996.6842041015625	61.56004333496094	976.51416015625	620.2425537109375	-203.2871856689453	1053.248046875	956.6932373046875	-154.9037628173828	nan	nan	nan	
3	0.02	846.34521484375	990.8695678710938	-112.2689208984375	860.7169189453125	1065.04541015625	-27.29913139343262	1106.073486328125	1251.578857421875	-26.37102317810059	844.2337646484375	1179.113891601562	-28.60589408874512	876.097900390625	1423.566162109375	-44.54327392578125	1040.981201171875	1352.06591796875	-31.15703582763672	828.7750244140625	1285.6806640625	34.12502670288086	864.4680786132812	1386.828979492188	-146.573974609375	960.1109619140625	1400.402465820312	-196.0655059814453	943.49658203125	1282.883422851562	-275.1346130371094	960.408935546875	1079.732788085938	-292.2664489746094	891.0420532226562	1064.24560546875	-241.5924224853516	1040.902099609375	860.1582641601562	-235.7196960449219	1015.313171386719	848.5477294921875	-302.0393981933594	979.1748657226562	976.1260375976562	-299.4191284179688	1021.441040039062	760.5834350585938	-299.9279174804688	1069.238891601562	762.2254028320312	-254.4665222167969	942.4932250976562	1406.791870117188	117.8693618774414	936.1414794921875	1350.176025390625	185.6128845214844	934.6393432617188	1086.756103515625	243.5900573730469	899.0967407226562	1075.018188476562	154.3366546630859	1044.330932617188	867.0584106445312	195.5244140625	1003.116821289062	861.95361328125	269.4224548339844	962.0047607421875	1020.330627441406	257.4256286621094	1061.067993164062	681.5887451171875	200.2134094238281	1079.277587890625	753.1630859375	213.5923004150391	1032.578491210938	750.9813232421875	265.5897521972656	900.9232788085938	1586.859741210938	34.69614028930664	1078.834594726562	1624.077026367188	-74.92156219482422	1074.42138671875	1617.167602539062	17.90865516662598	909.605712890625	1587.615356445312	-111.0538101196289	920.3392944335938	944.9662475585938	-206.4259643554688	943.6307983398438	948.1417236328125	165.9696350097656	1063.190307617188	955.275146484375	96.24935913085938	983.608642578125	478.8899841308594	-183.3894348144531	871.07958984375	39.886474609375	-167.5733032226562	920.1389770507812	255.9342193603516	-185.4702911376953	1076.816650390625	28.8704719543457	-99.69190216064453	1004.137939453125	22.60535621643066	-63.8821907043457	995.7249755859375	33.29706192016602	-175.5487823486328	824.9813842773438	34.8702392578125	-109.3188705444336	974.4931640625	474.0350341796875	122.2488861083984	1006.88818359375	735.3326416015625	159.7020263671875	882.5262451171875	34.51358032226562	83.38669586181641	974.055419921875	349.5850830078125	105.321647644043	1079.5009765625	35.01963043212891	32.02327728271484	1022.704467773438	33.92676544189453	-7.187998294830322	986.247314453125	24.40301132202148	105.1490478515625	830.2021484375	35.46954727172852	31.4176082611084	1049.034790039062	672.85888671875	-235.5837860107422	843.6123046875	996.70361328125	61.76111221313477	976.6473999023438	620.1853637695312	-203.2286071777344	1053.163452148438	956.7102661132812	-154.7662200927734	nan	nan	nan	
4	0.03	846.3277587890625	990.8346557617188	-111.9449081420898	860.6919555664062	1065.059814453125	-27.12886619567871	1106.131958007812	1251.54931640625	-26.25694274902344	844.1466674804688	1179.054809570312	-28.40571594238281	876.107421875	1423.5283203125	-44.35636901855469	1041.0224609375	1352.049926757812	-31.03970146179199	828.8495483398438	1285.657470703125	34.28633880615234	864.4725952148438	1386.814086914062	-146.4656829833984	960.0552978515625	1400.308715820312	-195.9234771728516	943.44140625	1282.75146484375	-274.9307556152344	960.4036865234375	1079.567993164062	-291.9044189453125	891.0294189453125	1064.160766601562	-241.2667083740234	1040.844482421875	860.061767578125	-235.1507568359375	1015.339660644531	848.3821411132812	-301.474365234375	979.1879272460938	976.0181884765625	-298.9646911621094	1021.417175292969	760.4147338867188	-299.295166015625	1069.224487304688	762.1571044921875	-253.8058776855469	942.5439453125	1406.747802734375	118.0286331176758	936.2186279296875	1350.091796875	185.7438049316406	934.778564453125	1086.599487304688	243.4938812255859	899.2094116210938	1074.937133789062	154.2140502929688	1044.359008789062	866.87109375	195.2352752685547	1003.291564941406	861.7859497070312	269.2068176269531	962.2515258789062	1020.174011230469	257.3038330078125	1060.933471679688	681.3905639648438	199.7991027832031	1079.131469726562	752.9201049804688	213.1817626953125	1032.580078125	750.7756958007812	265.252685546875	900.9010009765625	1586.862670898438	34.87299728393555	1078.770385742188	1624.14697265625	-74.74563598632812	1074.3662109375	1617.227416992188	18.11164474487305	909.5040893554688	1587.62646484375	-110.8703002929688	918.495849609375	945.0724487304688	-206.6315307617188	943.6256713867188	948.1299438476562	166.2149505615234	1063.127319335938	955.2555541992188	96.36017608642578	983.5654907226562	478.8978576660156	-183.3221130371094	871.086669921875	39.90068435668945	-167.5702514648438	920.1260375976562	255.9453125	-185.4260101318359	1076.822265625	28.88701820373535	-99.70381927490234	1004.138549804688	22.60578918457031	-63.88304138183594	995.7280883789062	33.29738616943359	-175.5540008544922	824.986083984375	34.88241958618164	-109.3159103393555	974.4539184570312	474.0341186523438	122.3536224365234	1006.883972167969	735.2108154296875	159.760009765625	882.5401000976562	34.51466369628906	83.47481536865234	973.9822387695312	349.595947265625	105.4389038085938	1079.495849609375	35.02973175048828	32.025390625	1022.696166992188	33.92919921875	-7.167994499206543	986.2415161132812	24.38820648193359	105.1581649780273	830.2191162109375	35.4612922668457	31.44497108459473	1049.055786132812	672.8133544921875	-234.9220733642578	843.5467529296875	996.7217407226562	61.99246978759766	976.8033447265625	620.124267578125	-203.1597442626953	1053.059448242188	956.7291870117188	-154.6104431152344	nan	nan	nan	
